<?xml version="1.0" encoding="utf-8"?>
<!-- Generator: Adobe Illustrator 22.1.0, SVG Export Plug-In . SVG Version: 6.00 Build 0)  -->
<svg version="1.1" xmlns="http://www.w3.org/2000/svg" xmlns:xlink="http://www.w3.org/1999/xlink" x="0px" y="0px"
	 viewBox="0 0 683 148" style="enable-background:new 0 0 683 148;" xml:space="preserve">
<style type="text/css">
	.st0{fill:#FFFFFF;}
</style>
<g id="Layer_2">
	<rect y="0" width="683.1" height="148"/>
</g>
<g id="Layer_1">
	<g>
		<path class="st0" d="M13.5,78.3c-3-2-5.4-4.7-7.1-8c-1.7-3.4-2.6-7-2.6-11c0-0.8,0.2-1.5,0.7-2.1c0.5-0.5,1.1-0.8,1.8-0.8
			c0.7,0,1.3,0.3,1.8,0.8c0.5,0.5,0.7,1.2,0.7,2.1c0,2.9,0.7,5.6,2,8.1c1.3,2.5,3.1,4.5,5.3,5.9c2.2,1.5,4.6,2.2,7.2,2.2
			c2.6,0,5-0.7,7.2-2.2c2.2-1.5,3.9-3.5,5.2-6c1.3-2.5,1.9-5.2,1.9-8.1V8.4c0-0.8,0.3-1.5,0.8-2.1c0.5-0.5,1.1-0.8,1.8-0.8
			c0.7,0,1.3,0.3,1.8,0.8c0.5,0.5,0.7,1.2,0.7,2.1v50.8c0,4-0.9,7.6-2.6,11c-1.7,3.4-4.1,6.1-7.1,8c-3,2-6.2,3-9.7,3
			C19.8,81.3,16.5,80.3,13.5,78.3z"/>
		<path class="st0" d="M92.1,30.9c3.6,2.3,6.4,5.5,8.5,9.6c2.1,4.1,3.1,8.6,3.1,13.7v23.3c0,0.8-0.2,1.5-0.7,2.1
			c-0.5,0.5-1.1,0.8-1.9,0.8c-0.7,0-1.3-0.3-1.8-0.8c-0.5-0.5-0.7-1.2-0.7-2.1V70c-1.9,3.4-4.4,6-7.7,8c-3.2,1.9-6.9,2.9-10.9,2.9
			c-4.5,0-8.5-1.2-12.1-3.5c-3.6-2.3-6.4-5.5-8.5-9.6c-2.1-4.1-3.1-8.6-3.1-13.6c0-5,1-9.6,3.1-13.7c2.1-4.1,4.9-7.3,8.5-9.6
			c3.6-2.3,7.6-3.5,12.1-3.5C84.5,27.4,88.5,28.6,92.1,30.9z M89.5,72.8c2.8-1.9,5-4.4,6.6-7.7c1.6-3.3,2.4-6.9,2.4-10.9
			c0-4-0.8-7.7-2.4-10.9c-1.6-3.3-3.8-5.8-6.6-7.7c-2.8-1.9-6-2.8-9.5-2.8c-3.5,0-6.7,0.9-9.5,2.8c-2.8,1.9-5,4.5-6.7,7.7
			c-1.6,3.3-2.5,6.9-2.5,10.9c0,4,0.8,7.7,2.5,10.9c1.6,3.3,3.9,5.8,6.7,7.7c2.8,1.9,6,2.8,9.5,2.8C83.6,75.6,86.7,74.6,89.5,72.8z"
			/>
		<path class="st0" d="M174.3,30.2c2.7,1.9,4.7,4.6,6.2,8c1.5,3.4,2.2,7.3,2.2,11.6v27.7c0,0.8-0.2,1.5-0.7,2.1
			c-0.5,0.5-1.1,0.8-1.9,0.8c-0.7,0-1.3-0.3-1.8-0.8c-0.5-0.5-0.7-1.2-0.7-2.1V49.8c0-4.9-1.2-8.9-3.5-12.1
			c-2.3-3.1-5.3-4.7-8.9-4.7c-3.9,0-7.1,1.5-9.6,4.4c-2.4,2.9-3.6,6.8-3.5,11.7v0.7v27.7c0,0.8-0.2,1.5-0.7,2.1
			c-0.5,0.5-1.1,0.8-1.9,0.8c-0.7,0-1.3-0.3-1.8-0.8c-0.5-0.5-0.7-1.2-0.7-2.1V49.8c0-4.9-1.2-8.9-3.5-12.1
			c-2.3-3.1-5.3-4.7-8.9-4.7c-3.9,0-7.1,1.4-9.6,4.2c-2.5,2.8-3.7,6.4-3.7,10.9v29.3c0,0.8-0.2,1.5-0.7,2.1
			c-0.5,0.5-1.1,0.8-1.9,0.8c-0.7,0-1.3-0.3-1.8-0.8c-0.5-0.5-0.7-1.2-0.7-2.1V30.9c0-0.9,0.2-1.6,0.7-2.1c0.5-0.5,1.1-0.8,1.8-0.8
			c0.8,0,1.4,0.3,1.9,0.8c0.5,0.5,0.7,1.2,0.7,2.1v3.7c1.6-2.3,3.5-4.1,5.8-5.4c2.3-1.3,4.8-1.9,7.4-1.9c3.3,0,6.2,0.9,8.8,2.7
			c2.6,1.8,4.7,4.3,6.2,7.5c1.5-3.2,3.6-5.7,6.3-7.5c2.7-1.8,5.8-2.7,9.1-2.7S171.6,28.3,174.3,30.2z"/>
		<path class="st0" d="M227.3,30.8c3.2,2.2,5.8,5.3,7.6,9.1c1.8,3.9,2.7,8.3,2.7,13.3c0,0.8-0.2,1.5-0.7,2c-0.5,0.5-1,0.7-1.8,0.7
			h-35.5c0.2,3.8,1,7.1,2.6,10.1c1.6,3,3.7,5.3,6.3,6.9c2.7,1.7,5.6,2.5,8.9,2.5c2.2,0,4.4-0.4,6.6-1.3c2.2-0.9,4-2,5.3-3.4
			c0.6-0.5,1.2-0.8,1.8-0.8c0.6,0,1.1,0.2,1.5,0.6c0.6,0.6,0.9,1.2,0.9,2c0,0.6-0.3,1.2-0.8,1.8c-1.8,1.9-4.2,3.4-7.1,4.6
			c-2.9,1.2-5.7,1.8-8.3,1.8c-4.5,0-8.4-1.1-11.9-3.4c-3.5-2.3-6.2-5.4-8.2-9.5c-2-4.1-3-8.6-3-13.7c0-5.2,0.9-9.8,2.8-13.8
			c1.8-4.1,4.4-7.2,7.7-9.5c3.3-2.3,7.1-3.4,11.3-3.4C220.3,27.5,224,28.6,227.3,30.8z M205.1,37.8c-3,3.3-4.8,7.7-5.4,13.1h32.9
			c-0.4-5.4-2.1-9.8-5.1-13.1c-3-3.3-6.8-5-11.3-5C211.8,32.9,208.1,34.5,205.1,37.8z"/>
		<path class="st0" d="M254.7,79c-3.1-1.3-5.7-3.3-7.7-6c-0.4-0.5-0.6-1.1-0.6-1.7c0-0.9,0.4-1.6,1.1-2.2c0.3-0.3,0.8-0.5,1.4-0.5
			c0.8,0,1.4,0.4,1.9,1.1c2.8,3.9,7.4,5.8,13.6,5.8c4.5,0,7.7-0.9,9.9-2.7c2.1-1.8,3.2-4.1,3.2-6.9c0-5-4.3-8.3-12.9-9.7
			c-5.5-0.9-9.6-2.6-12.4-5.1c-2.8-2.5-4.2-5.5-4.2-9c0-4.7,1.5-8.3,4.5-10.9c3-2.6,7-3.9,11.8-3.9c7.1,0,12.5,2.9,16.2,8.6
			c0.3,0.4,0.5,1,0.5,1.6c0,0.9-0.5,1.6-1.4,2.2c-0.6,0.3-1,0.4-1.3,0.4c-0.8,0-1.6-0.4-2.1-1.2c-2.9-4.1-6.9-6.2-12.1-6.2
			c-3.4,0-6.2,0.8-8.2,2.5c-2,1.7-3,3.8-3,6.3c0,2.6,1,4.6,2.9,6.1c1.9,1.5,5.2,2.7,9.8,3.4c6,1,10.3,2.8,12.9,5.4
			c2.6,2.6,3.9,5.9,3.9,9.6c0,2.9-0.8,5.5-2.5,7.8c-1.7,2.2-3.9,4-6.6,5.2c-2.8,1.2-5.8,1.8-9.1,1.8C261,80.9,257.8,80.3,254.7,79z"
			/>
		<path class="st0" d="M320.3,79.5c-0.5-0.5-0.8-1.2-0.8-2.1v-69c0-0.8,0.3-1.5,0.8-2.1c0.5-0.5,1.1-0.8,1.8-0.8
			c0.7,0,1.3,0.3,1.8,0.8c0.5,0.5,0.7,1.2,0.7,2.1v66.7h34.8c0.7,0,1.3,0.2,1.8,0.7c0.5,0.5,0.7,1.1,0.7,1.9c0,0.8-0.2,1.4-0.7,1.9
			c-0.5,0.5-1.1,0.7-1.8,0.7h-37.3C321.4,80.4,320.8,80.1,320.3,79.5z"/>
		<path class="st0" d="M373.1,15.7c-0.7-0.9-1.1-1.9-1.1-3.2c0-1.4,0.4-2.5,1.2-3.3c0.8-0.8,1.7-1.1,2.8-1.1c1.1,0,2,0.4,2.8,1.1
			s1.1,1.9,1.1,3.3c0,1.3-0.4,2.3-1.1,3.2c-0.8,0.9-1.7,1.3-2.8,1.3C374.7,17,373.8,16.5,373.1,15.7z M374.1,79.5
			c-0.5-0.5-0.7-1.2-0.7-2.1V30.9c0-0.9,0.2-1.6,0.7-2.1c0.5-0.5,1.1-0.8,1.8-0.8c0.8,0,1.4,0.3,1.9,0.8c0.5,0.5,0.7,1.2,0.7,2.1
			v46.6c0,0.8-0.2,1.5-0.7,2.1c-0.5,0.5-1.1,0.8-1.9,0.8C375.2,80.4,374.6,80.1,374.1,79.5z"/>
		<path class="st0" d="M428.6,30.9c3.6,2.3,6.4,5.5,8.5,9.6c2.1,4.1,3.1,8.6,3.1,13.7v23.3c0,0.8-0.2,1.5-0.7,2.1
			c-0.5,0.5-1.1,0.8-1.9,0.8c-0.7,0-1.3-0.3-1.8-0.8c-0.5-0.5-0.7-1.2-0.7-2.1V70c-1.9,3.4-4.4,6-7.7,8c-3.2,1.9-6.9,2.9-10.9,2.9
			c-4.5,0-8.5-1.2-12.1-3.5c-3.6-2.3-6.4-5.5-8.5-9.6c-2.1-4.1-3.1-8.6-3.1-13.6c0-5,1-9.6,3.1-13.7c2.1-4.1,4.9-7.3,8.5-9.6
			c3.6-2.3,7.6-3.5,12.1-3.5C421,27.4,425,28.6,428.6,30.9z M426,72.8c2.8-1.9,5-4.4,6.6-7.7c1.6-3.3,2.4-6.9,2.4-10.9
			c0-4-0.8-7.7-2.4-10.9c-1.6-3.3-3.8-5.8-6.6-7.7c-2.8-1.9-6-2.8-9.5-2.8c-3.5,0-6.7,0.9-9.5,2.8c-2.8,1.9-5,4.5-6.7,7.7
			c-1.6,3.3-2.5,6.9-2.5,10.9c0,4,0.8,7.7,2.5,10.9c1.6,3.3,3.9,5.8,6.7,7.7c2.8,1.9,6,2.8,9.5,2.8C420,75.6,423.2,74.6,426,72.8z"
			/>
		<path class="st0" d="M485.1,30.2c3.2,1.9,5.8,4.7,7.6,8.4c1.8,3.7,2.8,8.1,2.8,13.2v25.8c0,0.8-0.2,1.5-0.7,2.1
			c-0.5,0.5-1.1,0.8-1.8,0.8c-0.7,0-1.3-0.3-1.8-0.8c-0.5-0.5-0.7-1.2-0.7-2.1V51.7c0-6.1-1.5-10.7-4.5-13.9c-3-3.2-7-4.8-11.8-4.8
			c-3,0-5.7,0.7-8.2,2c-2.5,1.3-4.4,3.1-5.8,5.5c-1.4,2.3-2.1,4.9-2.1,7.7v29.3c0,0.8-0.2,1.5-0.7,2.1c-0.5,0.5-1.1,0.8-1.9,0.8
			c-0.7,0-1.3-0.3-1.8-0.8c-0.5-0.5-0.7-1.2-0.7-2.1V30.9c0-0.9,0.2-1.6,0.7-2.1c0.5-0.5,1.1-0.8,1.8-0.8c0.8,0,1.4,0.3,1.9,0.8
			c0.5,0.5,0.7,1.2,0.7,2.1v5c1.9-2.7,4.3-4.8,7-6.3c2.8-1.5,5.8-2.2,9.1-2.2C478.1,27.3,481.8,28.3,485.1,30.2z"/>
		<path class="st0" d="M543.2,30.9c3.6,2.3,6.4,5.5,8.4,9.5c2,4.1,3,8.7,3,13.8V73c0,5.1-1,9.7-3,13.9c-2,4.2-4.8,7.5-8.4,9.9
			s-7.5,3.6-11.8,3.6c-4.5,0-8.4-0.9-11.7-2.8c-3.4-1.9-6.2-4.5-8.4-7.7c-0.5-0.6-0.7-1.3-0.7-1.9c0-0.8,0.3-1.4,0.8-1.8
			c0.5-0.4,1-0.6,1.5-0.6c0.9,0,1.6,0.4,2.2,1.2c1.9,2.6,4.2,4.6,6.9,6c2.7,1.5,5.9,2.2,9.4,2.2c3.4,0,6.5-1,9.3-2.9
			c2.8-1.9,4.9-4.5,6.5-7.9c1.6-3.4,2.4-7.1,2.4-11.2v-4.2c-1.6,3.8-4.1,6.7-7.3,8.9c-3.2,2.2-7,3.3-11.2,3.3
			c-4.6,0-8.6-1.1-12.2-3.4c-3.6-2.3-6.4-5.4-8.4-9.5c-2-4.1-3-8.7-3-13.8c0-5.1,1-9.7,3.1-13.8c2.1-4.1,4.9-7.3,8.5-9.6
			c3.6-2.3,7.6-3.4,12-3.4C535.5,27.4,539.6,28.6,543.2,30.9z M540.5,72.8c2.8-1.8,5-4.3,6.6-7.6c1.6-3.2,2.4-6.9,2.4-11.1
			c0-4.1-0.8-7.9-2.4-11.1c-1.6-3.3-3.8-5.8-6.6-7.6s-6-2.7-9.6-2.7c-3.6,0-6.8,0.9-9.6,2.7c-2.8,1.8-5,4.4-6.6,7.6
			c-1.6,3.3-2.4,7-2.4,11.1c0,4.1,0.8,7.8,2.4,11.1c1.6,3.2,3.8,5.7,6.6,7.6c2.8,1.8,6,2.7,9.6,2.7
			C534.5,75.6,537.7,74.7,540.5,72.8z"/>
	</g>
	<g>
		<path class="st0" d="M346.5,127.5c0.1,0.2,0.2,0.4,0.2,0.6v7.5c0,0.1,0,0.3,0,0.3c0,0.1-0.1,0.2-0.2,0.3c-1.5,1.7-3.7,2.6-6.5,2.6
			c-1.8,0-3.5-0.5-5.1-1.6c-1.6-1.1-2.8-2.5-3.8-4.4c-0.9-1.8-1.4-3.8-1.4-5.9s0.5-4.1,1.4-5.9s2.2-3.3,3.7-4.4
			c1.6-1.1,3.3-1.6,5.2-1.6c2.5,0,4.6,0.9,6.5,2.6c0.2,0.1,0.2,0.3,0.2,0.6c0,0.2-0.1,0.5-0.2,0.6c-0.1,0.2-0.3,0.3-0.6,0.3
			c-0.2,0-0.4-0.1-0.7-0.4c-1.3-1.3-3.1-2-5.3-2c-1.5,0-3,0.5-4.3,1.4c-1.3,0.9-2.4,2.2-3.2,3.7s-1.2,3.2-1.2,5
			c0,1.8,0.4,3.5,1.2,5.1s1.8,2.8,3.2,3.7c1.3,0.9,2.8,1.4,4.3,1.4c1.9,0,3.6-0.6,5.1-1.8v-6.4h-4.4c-0.2,0-0.4-0.1-0.6-0.2
			c-0.1-0.2-0.2-0.4-0.2-0.6c0-0.2,0.1-0.4,0.2-0.5c0.1-0.1,0.3-0.2,0.6-0.2h5.2C346.1,127.2,346.3,127.3,346.5,127.5z"/>
		<path class="st0" d="M351.1,137.2c-0.6-0.9-1-2.1-1-3.5v-17.4c0-0.3,0.1-0.5,0.2-0.7c0.1-0.2,0.3-0.2,0.6-0.2
			c0.2,0,0.4,0.1,0.6,0.2c0.1,0.2,0.2,0.4,0.2,0.7v17.4c0,0.9,0.2,1.7,0.5,2.2c0.3,0.6,0.8,0.9,1.3,0.9h0.7c0.2,0,0.4,0.1,0.5,0.2
			c0.1,0.2,0.2,0.4,0.2,0.7c0,0.3-0.1,0.5-0.2,0.6c-0.1,0.2-0.3,0.3-0.6,0.3h-0.5C352.6,138.5,351.8,138.1,351.1,137.2z"/>
		<path class="st0" d="M360.3,137.6c-1.1-0.7-2-1.7-2.6-3c-0.6-1.3-1-2.7-1-4.2c0-1.6,0.3-3,1-4.2c0.6-1.3,1.5-2.3,2.6-3
			c1.1-0.7,2.4-1.1,3.8-1.1c1.4,0,2.6,0.4,3.7,1.1c1.1,0.7,2,1.7,2.6,3c0.6,1.3,1,2.7,1,4.2c0,1.5-0.3,3-1,4.2
			c-0.6,1.3-1.5,2.3-2.6,3s-2.4,1.1-3.7,1.1C362.7,138.7,361.5,138.4,360.3,137.6z M367,136.2c0.9-0.6,1.6-1.4,2.1-2.4
			c0.5-1,0.8-2.1,0.8-3.4s-0.2-2.4-0.8-3.4c-0.5-1-1.2-1.8-2.1-2.4c-0.9-0.6-1.9-0.9-2.9-0.9s-2.1,0.3-2.9,0.9
			c-0.9,0.6-1.6,1.4-2.1,2.4c-0.5,1-0.8,2.1-0.8,3.4s0.3,2.4,0.8,3.4c0.5,1,1.2,1.8,2.1,2.4c0.9,0.6,1.9,0.9,2.9,0.9
			S366.2,136.8,367,136.2z"/>
		<path class="st0" d="M386.5,123.2c1.1,0.7,2,1.7,2.6,3c0.6,1.3,1,2.7,1,4.2c0,1.6-0.3,3-1,4.2c-0.6,1.3-1.5,2.3-2.6,3
			s-2.4,1.1-3.8,1.1c-1.3,0-2.6-0.4-3.7-1.1c-1.1-0.7-2-1.7-2.6-2.9c-0.6-1.2-1-2.6-1-4.2v-0.1v-14.3c0-0.3,0.1-0.5,0.2-0.7
			c0.1-0.2,0.3-0.2,0.6-0.2c0.2,0,0.4,0.1,0.6,0.2c0.1,0.2,0.2,0.4,0.2,0.7v9.3c0.6-1,1.4-1.9,2.4-2.5c1-0.6,2.1-0.9,3.4-0.9
			C384.1,122.1,385.3,122.5,386.5,123.2z M385.6,136.2c0.9-0.6,1.6-1.4,2.1-2.4c0.5-1,0.8-2.1,0.8-3.4c0-1.2-0.3-2.4-0.8-3.4
			c-0.5-1-1.2-1.8-2.1-2.4c-0.9-0.6-1.9-0.9-2.9-0.9s-2.1,0.3-2.9,0.9c-0.9,0.6-1.6,1.4-2.1,2.4s-0.7,2.1-0.7,3.4
			c0,1.2,0.2,2.4,0.7,3.4c0.5,1,1.2,1.8,2.1,2.4c0.9,0.6,1.9,0.9,2.9,0.9S384.8,136.8,385.6,136.2z"/>
		<path class="st0" d="M404.3,123.2c1.1,0.7,2,1.7,2.6,3c0.6,1.3,1,2.7,1,4.2v7.2c0,0.3-0.1,0.5-0.2,0.6c-0.1,0.2-0.3,0.3-0.6,0.3
			c-0.2,0-0.4-0.1-0.6-0.3c-0.1-0.2-0.2-0.4-0.2-0.6v-2.3c-0.6,1.1-1.4,1.9-2.4,2.5c-1,0.6-2.1,0.9-3.4,0.9c-1.4,0-2.6-0.4-3.8-1.1
			s-2-1.7-2.6-3c-0.6-1.3-1-2.7-1-4.2c0-1.6,0.3-3,1-4.2c0.6-1.3,1.5-2.3,2.6-3c1.1-0.7,2.4-1.1,3.8-1.1
			C401.9,122.1,403.2,122.5,404.3,123.2z M403.5,136.2c0.9-0.6,1.6-1.4,2.1-2.4s0.7-2.1,0.7-3.4s-0.2-2.4-0.7-3.4
			c-0.5-1-1.2-1.8-2.1-2.4c-0.9-0.6-1.9-0.9-2.9-0.9s-2.1,0.3-2.9,0.9c-0.9,0.6-1.6,1.4-2.1,2.4c-0.5,1-0.8,2.1-0.8,3.4
			s0.3,2.4,0.8,3.4c0.5,1,1.2,1.8,2.1,2.4c0.9,0.6,1.9,0.9,2.9,0.9S402.6,136.8,403.5,136.2z"/>
		<path class="st0" d="M412.3,137.2c-0.6-0.9-1-2.1-1-3.5v-17.4c0-0.3,0.1-0.5,0.2-0.7c0.1-0.2,0.3-0.2,0.6-0.2
			c0.2,0,0.4,0.1,0.6,0.2c0.1,0.2,0.2,0.4,0.2,0.7v17.4c0,0.9,0.2,1.7,0.5,2.2c0.3,0.6,0.8,0.9,1.3,0.9h0.7c0.2,0,0.4,0.1,0.5,0.2
			c0.1,0.2,0.2,0.4,0.2,0.7c0,0.3-0.1,0.5-0.2,0.6c-0.1,0.2-0.3,0.3-0.6,0.3h-0.5C413.7,138.5,412.9,138.1,412.3,137.2z"/>
		<path class="st0" d="M431,137.2c-1.6-1.1-2.8-2.5-3.8-4.4s-1.4-3.8-1.4-5.9s0.5-4.1,1.4-5.9c0.9-1.8,2.2-3.3,3.7-4.4
			c1.6-1.1,3.3-1.6,5.2-1.6c2.5,0,4.6,0.9,6.5,2.6c0.2,0.1,0.2,0.3,0.2,0.6c0,0.2-0.1,0.5-0.2,0.6c-0.1,0.2-0.3,0.3-0.6,0.3
			c-0.2,0-0.4-0.1-0.7-0.4c-1.3-1.3-3.1-2-5.3-2c-1.5,0-3,0.5-4.3,1.4c-1.3,0.9-2.4,2.2-3.2,3.7s-1.2,3.2-1.2,5
			c0,1.8,0.4,3.5,1.2,5.1c0.8,1.6,1.8,2.8,3.2,3.7c1.3,0.9,2.8,1.4,4.3,1.4c2.1,0,3.9-0.7,5.4-2.2c0.1-0.1,0.3-0.1,0.4-0.1
			c0.2,0,0.4,0.1,0.6,0.3c0.2,0.2,0.2,0.4,0.2,0.7s-0.1,0.5-0.2,0.6c-1.5,1.7-3.7,2.6-6.5,2.6C434.3,138.8,432.6,138.3,431,137.2z"
			/>
		<path class="st0" d="M456.8,123c1,0.6,1.8,1.5,2.4,2.6s0.9,2.5,0.9,4.1v8c0,0.3-0.1,0.5-0.2,0.6c-0.1,0.2-0.3,0.3-0.6,0.3
			c-0.2,0-0.4-0.1-0.6-0.3c-0.1-0.2-0.2-0.4-0.2-0.6v-8c0-1.9-0.5-3.3-1.4-4.3c-0.9-1-2.2-1.5-3.7-1.5c-0.9,0-1.8,0.2-2.5,0.6
			s-1.4,1-1.8,1.7s-0.7,1.5-0.7,2.4v9.1c0,0.3-0.1,0.5-0.2,0.6c-0.1,0.2-0.3,0.3-0.6,0.3c-0.2,0-0.4-0.1-0.6-0.3
			c-0.1-0.2-0.2-0.4-0.2-0.6v-21.4c0-0.3,0.1-0.5,0.2-0.7c0.1-0.2,0.3-0.2,0.6-0.2c0.2,0,0.4,0.1,0.6,0.2c0.1,0.2,0.2,0.4,0.2,0.7
			v8.5c0.6-0.8,1.3-1.5,2.2-1.9s1.8-0.7,2.8-0.7C454.6,122.1,455.8,122.4,456.8,123z"/>
		<path class="st0" d="M474.8,123.2c1.1,0.7,2,1.7,2.6,3c0.6,1.3,1,2.7,1,4.2v7.2c0,0.3-0.1,0.5-0.2,0.6c-0.1,0.2-0.3,0.3-0.6,0.3
			c-0.2,0-0.4-0.1-0.6-0.3c-0.1-0.2-0.2-0.4-0.2-0.6v-2.3c-0.6,1.1-1.4,1.9-2.4,2.5c-1,0.6-2.1,0.9-3.4,0.9c-1.4,0-2.6-0.4-3.8-1.1
			s-2-1.7-2.6-3c-0.6-1.3-1-2.7-1-4.2c0-1.6,0.3-3,1-4.2c0.6-1.3,1.5-2.3,2.6-3c1.1-0.7,2.4-1.1,3.8-1.1
			C472.4,122.1,473.6,122.5,474.8,123.2z M474,136.2c0.9-0.6,1.6-1.4,2.1-2.4s0.7-2.1,0.7-3.4s-0.2-2.4-0.7-3.4
			c-0.5-1-1.2-1.8-2.1-2.4c-0.9-0.6-1.9-0.9-2.9-0.9s-2.1,0.3-2.9,0.9c-0.9,0.6-1.6,1.4-2.1,2.4c-0.5,1-0.8,2.1-0.8,3.4
			s0.3,2.4,0.8,3.4c0.5,1,1.2,1.8,2.1,2.4c0.9,0.6,1.9,0.9,2.9,0.9S473.1,136.8,474,136.2z"/>
		<path class="st0" d="M482.7,137.2c-0.6-0.9-1-2.1-1-3.5v-17.4c0-0.3,0.1-0.5,0.2-0.7c0.1-0.2,0.3-0.2,0.6-0.2
			c0.2,0,0.4,0.1,0.6,0.2c0.1,0.2,0.2,0.4,0.2,0.7v17.4c0,0.9,0.2,1.7,0.5,2.2c0.3,0.6,0.8,0.9,1.3,0.9h0.7c0.2,0,0.4,0.1,0.5,0.2
			c0.1,0.2,0.2,0.4,0.2,0.7c0,0.3-0.1,0.5-0.2,0.6c-0.1,0.2-0.3,0.3-0.6,0.3h-0.5C484.2,138.5,483.4,138.1,482.7,137.2z"/>
		<path class="st0" d="M489.8,137.2c-0.6-0.9-1-2.1-1-3.5v-17.4c0-0.3,0.1-0.5,0.2-0.7c0.1-0.2,0.3-0.2,0.6-0.2
			c0.2,0,0.4,0.1,0.6,0.2c0.1,0.2,0.2,0.4,0.2,0.7v17.4c0,0.9,0.2,1.7,0.5,2.2c0.3,0.6,0.8,0.9,1.3,0.9h0.7c0.2,0,0.4,0.1,0.5,0.2
			c0.1,0.2,0.2,0.4,0.2,0.7c0,0.3-0.1,0.5-0.2,0.6c-0.1,0.2-0.3,0.3-0.6,0.3h-0.5C491.3,138.5,490.5,138.1,489.8,137.2z"/>
		<path class="st0" d="M505.6,123.2c1,0.7,1.8,1.6,2.4,2.8c0.6,1.2,0.8,2.6,0.8,4.1c0,0.3-0.1,0.5-0.2,0.6c-0.1,0.1-0.3,0.2-0.6,0.2
			h-11c0.1,1.2,0.3,2.2,0.8,3.1c0.5,0.9,1.1,1.6,2,2.2c0.8,0.5,1.7,0.8,2.8,0.8c0.7,0,1.4-0.1,2.1-0.4c0.7-0.3,1.2-0.6,1.6-1.1
			c0.2-0.2,0.4-0.2,0.6-0.2s0.4,0.1,0.5,0.2c0.2,0.2,0.3,0.4,0.3,0.6c0,0.2-0.1,0.4-0.2,0.6c-0.6,0.6-1.3,1.1-2.2,1.4
			c-0.9,0.4-1.8,0.6-2.6,0.6c-1.4,0-2.6-0.4-3.7-1.1s-1.9-1.7-2.5-2.9c-0.6-1.3-0.9-2.7-0.9-4.3c0-1.6,0.3-3,0.9-4.3
			c0.6-1.3,1.4-2.2,2.4-2.9s2.2-1.1,3.5-1.1C503.5,122.1,504.6,122.5,505.6,123.2z M498.7,125.3c-0.9,1-1.5,2.4-1.7,4.1h10.2
			c-0.1-1.7-0.6-3-1.6-4.1s-2.1-1.5-3.5-1.5C500.8,123.8,499.7,124.3,498.7,125.3z"/>
		<path class="st0" d="M522.2,123c1,0.6,1.8,1.5,2.4,2.6s0.9,2.5,0.9,4.1v8c0,0.3-0.1,0.5-0.2,0.6c-0.1,0.2-0.3,0.3-0.6,0.3
			c-0.2,0-0.4-0.1-0.6-0.3c-0.1-0.2-0.2-0.4-0.2-0.6v-8c0-1.9-0.5-3.3-1.4-4.3c-0.9-1-2.2-1.5-3.7-1.5c-0.9,0-1.8,0.2-2.5,0.6
			s-1.4,1-1.8,1.7s-0.7,1.5-0.7,2.4v9.1c0,0.3-0.1,0.5-0.2,0.6c-0.1,0.2-0.3,0.3-0.6,0.3c-0.2,0-0.4-0.1-0.6-0.3
			c-0.1-0.2-0.2-0.4-0.2-0.6v-14.5c0-0.3,0.1-0.5,0.2-0.7c0.1-0.2,0.3-0.2,0.6-0.2c0.2,0,0.4,0.1,0.6,0.2c0.1,0.2,0.2,0.4,0.2,0.7
			v1.5c0.6-0.8,1.3-1.5,2.2-1.9s1.8-0.7,2.8-0.7C520.1,122.1,521.2,122.4,522.2,123z"/>
		<path class="st0" d="M540.3,123.2c1.1,0.7,2,1.7,2.6,3c0.6,1.3,0.9,2.7,0.9,4.3v5.8c0,1.6-0.3,3-0.9,4.3c-0.6,1.3-1.5,2.3-2.6,3.1
			s-2.3,1.1-3.7,1.1c-1.4,0-2.6-0.3-3.6-0.9c-1-0.6-1.9-1.4-2.6-2.4c-0.1-0.2-0.2-0.4-0.2-0.6c0-0.2,0.1-0.4,0.3-0.6
			c0.1-0.1,0.3-0.2,0.5-0.2c0.3,0,0.5,0.1,0.7,0.4c0.6,0.8,1.3,1.4,2.1,1.9c0.8,0.5,1.8,0.7,2.9,0.7c1.1,0,2-0.3,2.9-0.9
			c0.9-0.6,1.5-1.4,2-2.5c0.5-1,0.7-2.2,0.7-3.5v-1.3c-0.5,1.2-1.3,2.1-2.3,2.8c-1,0.7-2.2,1-3.5,1c-1.4,0-2.7-0.4-3.8-1.1
			c-1.1-0.7-2-1.7-2.6-2.9c-0.6-1.3-0.9-2.7-0.9-4.3c0-1.6,0.3-3,1-4.3c0.6-1.3,1.5-2.3,2.7-3c1.1-0.7,2.4-1.1,3.7-1.1
			C537.9,122.1,539.2,122.5,540.3,123.2z M539.4,136.2c0.9-0.6,1.6-1.3,2-2.3c0.5-1,0.7-2.1,0.7-3.4s-0.2-2.4-0.7-3.4
			c-0.5-1-1.2-1.8-2-2.4s-1.9-0.8-3-0.8c-1.1,0-2.1,0.3-3,0.8s-1.6,1.4-2,2.4c-0.5,1-0.7,2.2-0.7,3.4s0.2,2.4,0.7,3.4
			c0.5,1,1.2,1.8,2,2.3s1.9,0.8,3,0.8C537.6,137.1,538.6,136.8,539.4,136.2z"/>
		<path class="st0" d="M557.1,123.2c1,0.7,1.8,1.6,2.4,2.8c0.6,1.2,0.8,2.6,0.8,4.1c0,0.3-0.1,0.5-0.2,0.6c-0.1,0.1-0.3,0.2-0.6,0.2
			h-11c0.1,1.2,0.3,2.2,0.8,3.1c0.5,0.9,1.1,1.6,2,2.2c0.8,0.5,1.7,0.8,2.8,0.8c0.7,0,1.4-0.1,2.1-0.4c0.7-0.3,1.2-0.6,1.6-1.1
			c0.2-0.2,0.4-0.2,0.6-0.2s0.4,0.1,0.5,0.2c0.2,0.2,0.3,0.4,0.3,0.6c0,0.2-0.1,0.4-0.2,0.6c-0.6,0.6-1.3,1.1-2.2,1.4
			c-0.9,0.4-1.8,0.6-2.6,0.6c-1.4,0-2.6-0.4-3.7-1.1s-1.9-1.7-2.5-2.9c-0.6-1.3-0.9-2.7-0.9-4.3c0-1.6,0.3-3,0.9-4.3
			c0.6-1.3,1.4-2.2,2.4-2.9s2.2-1.1,3.5-1.1C555,122.1,556.1,122.5,557.1,123.2z M550.3,125.3c-0.9,1-1.5,2.4-1.7,4.1h10.2
			c-0.1-1.7-0.6-3-1.6-4.1s-2.1-1.5-3.5-1.5C552.3,123.8,551.2,124.3,550.3,125.3z"/>
		<path class="st0" d="M565.7,138.1c-1-0.4-1.8-1-2.4-1.9c-0.1-0.2-0.2-0.3-0.2-0.5c0-0.3,0.1-0.5,0.3-0.7c0.1-0.1,0.3-0.1,0.4-0.1
			c0.2,0,0.4,0.1,0.6,0.3c0.9,1.2,2.3,1.8,4.2,1.8c1.4,0,2.4-0.3,3.1-0.8c0.7-0.6,1-1.3,1-2.1c0-1.6-1.3-2.6-4-3
			c-1.7-0.3-3-0.8-3.8-1.6c-0.9-0.8-1.3-1.7-1.3-2.8c0-1.4,0.5-2.6,1.4-3.4s2.2-1.2,3.7-1.2c2.2,0,3.9,0.9,5,2.7
			c0.1,0.1,0.2,0.3,0.2,0.5c0,0.3-0.1,0.5-0.4,0.7c-0.2,0.1-0.3,0.1-0.4,0.1c-0.3,0-0.5-0.1-0.7-0.4c-0.9-1.3-2.1-1.9-3.8-1.9
			c-1.1,0-1.9,0.3-2.5,0.8c-0.6,0.5-0.9,1.2-0.9,1.9c0,0.8,0.3,1.4,0.9,1.9c0.6,0.5,1.6,0.8,3,1.1c1.9,0.3,3.2,0.9,4,1.7
			s1.2,1.8,1.2,3c0,0.9-0.3,1.7-0.8,2.4s-1.2,1.2-2.1,1.6c-0.9,0.4-1.8,0.6-2.8,0.6S566.6,138.5,565.7,138.1z"/>
		<path class="st0" d="M586.1,138.3c-0.2-0.1-0.3-0.4-0.3-0.7v-21.4c0-0.3,0.1-0.5,0.2-0.7c0.1-0.2,0.3-0.2,0.6-0.2h6.4
			c1,0,1.9,0.2,2.7,0.7c0.8,0.5,1.5,1.2,2,2c0.5,0.9,0.7,1.8,0.7,2.9c0,1.1-0.3,2.1-0.8,3s-1.2,1.5-2.1,2c1.2,0.4,2.2,1.1,2.9,2.1
			c0.7,1,1.1,2.3,1.1,3.8c0,1.3-0.3,2.5-0.8,3.5c-0.5,1-1.2,1.8-2.2,2.4c-0.9,0.6-2,0.9-3.1,0.9h-6.6
			C586.5,138.5,586.2,138.5,586.1,138.3z M593,125.1c1.1,0,2-0.4,2.7-1.2c0.7-0.8,1.1-1.8,1.1-3c0-1.2-0.3-2.1-1-2.8
			c-0.7-0.7-1.6-1-2.7-1h-5.6v8H593z M593.4,136.8c0.9,0,1.6-0.2,2.3-0.6c0.7-0.4,1.2-1,1.6-1.8c0.4-0.8,0.6-1.6,0.6-2.6
			c0-0.9-0.2-1.8-0.6-2.5c-0.4-0.7-0.9-1.3-1.6-1.7c-0.7-0.4-1.4-0.6-2.3-0.6h-6v9.8H593.4z"/>
		<path class="st0" d="M603.7,137.2c-0.6-0.9-1-2.1-1-3.5v-17.4c0-0.3,0.1-0.5,0.2-0.7c0.1-0.2,0.3-0.2,0.6-0.2
			c0.2,0,0.4,0.1,0.6,0.2c0.1,0.2,0.2,0.4,0.2,0.7v17.4c0,0.9,0.2,1.7,0.5,2.2c0.3,0.6,0.8,0.9,1.3,0.9h0.7c0.2,0,0.4,0.1,0.5,0.2
			c0.1,0.2,0.2,0.4,0.2,0.7c0,0.3-0.1,0.5-0.2,0.6c-0.1,0.2-0.3,0.3-0.6,0.3h-0.5C605.1,138.5,604.3,138.1,603.7,137.2z"/>
		<path class="st0" d="M612.9,137.6c-1.1-0.7-2-1.7-2.6-3c-0.6-1.3-1-2.7-1-4.2c0-1.6,0.3-3,1-4.2c0.6-1.3,1.5-2.3,2.6-3
			c1.1-0.7,2.4-1.1,3.8-1.1c1.4,0,2.6,0.4,3.7,1.1c1.1,0.7,2,1.7,2.6,3c0.6,1.3,1,2.7,1,4.2c0,1.5-0.3,3-1,4.2
			c-0.6,1.3-1.5,2.3-2.6,3s-2.4,1.1-3.7,1.1C615.3,138.7,614,138.4,612.9,137.6z M619.6,136.2c0.9-0.6,1.6-1.4,2.1-2.4
			s0.7-2.1,0.7-3.4s-0.2-2.4-0.7-3.4c-0.5-1-1.2-1.8-2.1-2.4c-0.9-0.6-1.9-0.9-2.9-0.9s-2.1,0.3-2.9,0.9c-0.9,0.6-1.6,1.4-2.1,2.4
			c-0.5,1-0.8,2.1-0.8,3.4s0.3,2.4,0.8,3.4c0.5,1,1.2,1.8,2.1,2.4c0.9,0.6,1.9,0.9,2.9,0.9S618.7,136.8,619.6,136.2z"/>
		<path class="st0" d="M638.3,123.2c1.1,0.7,2,1.7,2.6,3c0.6,1.3,0.9,2.7,0.9,4.3v5.8c0,1.6-0.3,3-0.9,4.3c-0.6,1.3-1.5,2.3-2.6,3.1
			s-2.3,1.1-3.7,1.1c-1.4,0-2.6-0.3-3.6-0.9c-1-0.6-1.9-1.4-2.6-2.4c-0.1-0.2-0.2-0.4-0.2-0.6c0-0.2,0.1-0.4,0.3-0.6
			c0.1-0.1,0.3-0.2,0.5-0.2c0.3,0,0.5,0.1,0.7,0.4c0.6,0.8,1.3,1.4,2.1,1.9c0.8,0.5,1.8,0.7,2.9,0.7c1.1,0,2-0.3,2.9-0.9
			c0.9-0.6,1.5-1.4,2-2.5c0.5-1,0.7-2.2,0.7-3.5v-1.3c-0.5,1.2-1.3,2.1-2.3,2.8c-1,0.7-2.2,1-3.5,1c-1.4,0-2.7-0.4-3.8-1.1
			c-1.1-0.7-2-1.7-2.6-2.9c-0.6-1.3-0.9-2.7-0.9-4.3c0-1.6,0.3-3,1-4.3c0.6-1.3,1.5-2.3,2.7-3c1.1-0.7,2.4-1.1,3.7-1.1
			C635.9,122.1,637.2,122.5,638.3,123.2z M637.5,136.2c0.9-0.6,1.6-1.3,2-2.3c0.5-1,0.7-2.1,0.7-3.4s-0.2-2.4-0.7-3.4
			c-0.5-1-1.2-1.8-2-2.4s-1.9-0.8-3-0.8c-1.1,0-2.1,0.3-3,0.8s-1.6,1.4-2,2.4c-0.5,1-0.7,2.2-0.7,3.4s0.2,2.4,0.7,3.4
			c0.5,1,1.2,1.8,2,2.3s1.9,0.8,3,0.8C635.6,137.1,636.6,136.8,637.5,136.2z"/>
	</g>
</g>
</svg>
