<?xml version="1.0" encoding="utf-8"?>
<!-- Generator: Adobe Illustrator 22.1.0, SVG Export Plug-In . SVG Version: 6.00 Build 0)  -->
<svg version="1.1" id="Layer_1" xmlns="http://www.w3.org/2000/svg" xmlns:xlink="http://www.w3.org/1999/xlink" x="0px" y="0px"
	 viewBox="0 0 223.2 63" style="enable-background:new 0 0 223.2 63;" xml:space="preserve">
<style type="text/css">
	.st0{fill:#7D7B7B;}
</style>
<g>
	<path class="st0" d="M5.1,35.8c-1-0.7-1.7-1.5-2.3-2.6C2.3,32.1,2,31,2,29.7c0-0.3,0.1-0.5,0.2-0.7c0.2-0.2,0.4-0.3,0.6-0.3
		c0.2,0,0.4,0.1,0.6,0.3c0.2,0.2,0.2,0.4,0.2,0.7c0,1,0.2,1.8,0.6,2.6c0.4,0.8,1,1.5,1.7,1.9C6.7,34.7,7.5,35,8.3,35
		c0.8,0,1.6-0.2,2.3-0.7c0.7-0.5,1.3-1.1,1.7-1.9c0.4-0.8,0.6-1.7,0.6-2.6V13.2c0-0.3,0.1-0.5,0.2-0.7c0.2-0.2,0.4-0.3,0.6-0.3
		c0.2,0,0.4,0.1,0.6,0.3c0.2,0.2,0.2,0.4,0.2,0.7v16.5c0,1.3-0.3,2.5-0.9,3.6c-0.6,1.1-1.3,2-2.3,2.6c-1,0.6-2,1-3.2,1
		C7.2,36.8,6.1,36.5,5.1,35.8z"/>
	<path class="st0" d="M30.7,20.4c1.2,0.8,2.1,1.8,2.8,3.1c0.7,1.3,1,2.8,1,4.4v7.6c0,0.3-0.1,0.5-0.2,0.7c-0.1,0.2-0.3,0.3-0.6,0.3
		c-0.2,0-0.4-0.1-0.6-0.3c-0.2-0.2-0.2-0.4-0.2-0.7v-2.4c-0.6,1.1-1.4,2-2.5,2.6c-1.1,0.6-2.2,0.9-3.5,0.9c-1.4,0-2.8-0.4-3.9-1.1
		c-1.2-0.8-2.1-1.8-2.8-3.1s-1-2.8-1-4.4c0-1.6,0.3-3.1,1-4.4c0.7-1.3,1.6-2.4,2.8-3.1c1.2-0.8,2.5-1.1,3.9-1.1
		C28.2,19.3,29.5,19.7,30.7,20.4z M29.8,34.1c0.9-0.6,1.6-1.4,2.2-2.5c0.5-1.1,0.8-2.2,0.8-3.5c0-1.3-0.3-2.5-0.8-3.5
		c-0.5-1.1-1.2-1.9-2.2-2.5c-0.9-0.6-1.9-0.9-3.1-0.9s-2.2,0.3-3.1,0.9c-0.9,0.6-1.6,1.4-2.2,2.5c-0.5,1.1-0.8,2.2-0.8,3.5
		c0,1.3,0.3,2.5,0.8,3.5s1.3,1.9,2.2,2.5s1.9,0.9,3.1,0.9S28.9,34.7,29.8,34.1z"/>
	<path class="st0" d="M57.4,20.2c0.9,0.6,1.5,1.5,2,2.6c0.5,1.1,0.7,2.4,0.7,3.8v9c0,0.3-0.1,0.5-0.2,0.7c-0.1,0.2-0.3,0.3-0.6,0.3
		c-0.2,0-0.4-0.1-0.6-0.3c-0.2-0.2-0.2-0.4-0.2-0.7v-9c0-1.6-0.4-2.9-1.1-3.9c-0.8-1-1.7-1.5-2.9-1.5c-1.3,0-2.3,0.5-3.1,1.4
		c-0.8,1-1.2,2.2-1.1,3.8v0.2v9c0,0.3-0.1,0.5-0.2,0.7c-0.1,0.2-0.3,0.3-0.6,0.3c-0.2,0-0.4-0.1-0.6-0.3c-0.2-0.2-0.2-0.4-0.2-0.7
		v-9c0-1.6-0.4-2.9-1.1-3.9c-0.8-1-1.7-1.5-2.9-1.5c-1.3,0-2.3,0.5-3.1,1.4c-0.8,0.9-1.2,2.1-1.2,3.5v9.5c0,0.3-0.1,0.5-0.2,0.7
		c-0.1,0.2-0.3,0.3-0.6,0.3c-0.2,0-0.4-0.1-0.6-0.3c-0.2-0.2-0.2-0.4-0.2-0.7V20.4c0-0.3,0.1-0.5,0.2-0.7c0.2-0.2,0.4-0.2,0.6-0.2
		c0.3,0,0.5,0.1,0.6,0.2c0.1,0.2,0.2,0.4,0.2,0.7v1.2c0.5-0.7,1.1-1.3,1.9-1.7c0.8-0.4,1.6-0.6,2.4-0.6c1.1,0,2,0.3,2.9,0.9
		c0.8,0.6,1.5,1.4,2,2.4c0.5-1,1.2-1.9,2.1-2.4c0.9-0.6,1.9-0.9,3-0.9S56.5,19.6,57.4,20.2z"/>
	<path class="st0" d="M74.6,20.4c1.1,0.7,1.9,1.7,2.5,3c0.6,1.3,0.9,2.7,0.9,4.3c0,0.3-0.1,0.5-0.2,0.6c-0.1,0.2-0.3,0.2-0.6,0.2
		H65.6c0.1,1.2,0.3,2.3,0.9,3.3c0.5,1,1.2,1.7,2.1,2.3c0.9,0.5,1.8,0.8,2.9,0.8c0.7,0,1.4-0.1,2.2-0.4c0.7-0.3,1.3-0.6,1.7-1.1
		c0.2-0.2,0.4-0.2,0.6-0.2s0.4,0.1,0.5,0.2c0.2,0.2,0.3,0.4,0.3,0.7c0,0.2-0.1,0.4-0.2,0.6c-0.6,0.6-1.4,1.1-2.3,1.5
		c-0.9,0.4-1.8,0.6-2.7,0.6c-1.4,0-2.7-0.4-3.9-1.1c-1.1-0.7-2-1.8-2.7-3.1c-0.6-1.3-1-2.8-1-4.5c0-1.7,0.3-3.2,0.9-4.5
		c0.6-1.3,1.4-2.3,2.5-3.1s2.3-1.1,3.7-1.1C72.3,19.3,73.5,19.7,74.6,20.4z M67.4,22.7c-1,1.1-1.6,2.5-1.7,4.3h10.7
		c-0.1-1.8-0.7-3.2-1.6-4.3c-1-1.1-2.2-1.6-3.7-1.6C69.6,21.1,68.4,21.6,67.4,22.7z"/>
	<path class="st0" d="M83.5,36.1c-1-0.4-1.8-1.1-2.5-1.9c-0.1-0.2-0.2-0.4-0.2-0.6c0-0.3,0.1-0.5,0.4-0.7c0.1-0.1,0.3-0.2,0.5-0.2
		c0.3,0,0.5,0.1,0.6,0.3c0.9,1.3,2.4,1.9,4.4,1.9c1.4,0,2.5-0.3,3.2-0.9c0.7-0.6,1-1.3,1-2.2c0-1.6-1.4-2.7-4.2-3.1
		c-1.8-0.3-3.1-0.8-4-1.6s-1.4-1.8-1.4-2.9c0-1.5,0.5-2.7,1.5-3.5c1-0.8,2.3-1.3,3.8-1.3c2.3,0,4.1,0.9,5.3,2.8
		c0.1,0.1,0.2,0.3,0.2,0.5c0,0.3-0.1,0.5-0.4,0.7c-0.2,0.1-0.3,0.1-0.4,0.1c-0.3,0-0.5-0.1-0.7-0.4c-0.9-1.3-2.2-2-3.9-2
		c-1.1,0-2,0.3-2.7,0.8s-1,1.2-1,2c0,0.8,0.3,1.5,0.9,2s1.7,0.9,3.2,1.1c1.9,0.3,3.3,0.9,4.2,1.8c0.9,0.9,1.3,1.9,1.3,3.1
		c0,1-0.3,1.8-0.8,2.5c-0.5,0.7-1.3,1.3-2.2,1.7c-0.9,0.4-1.9,0.6-2.9,0.6C85.5,36.7,84.5,36.5,83.5,36.1z"/>
	<path class="st0" d="M104.8,36.2c-0.2-0.2-0.2-0.4-0.2-0.7V13.2c0-0.3,0.1-0.5,0.2-0.7c0.2-0.2,0.4-0.3,0.6-0.3
		c0.2,0,0.4,0.1,0.6,0.3c0.2,0.2,0.2,0.4,0.2,0.7v21.7h11.3c0.2,0,0.4,0.1,0.6,0.2c0.2,0.2,0.2,0.4,0.2,0.6s-0.1,0.5-0.2,0.6
		c-0.2,0.2-0.4,0.2-0.6,0.2h-12.1C105.2,36.5,105,36.4,104.8,36.2z"/>
	<path class="st0" d="M121.9,15.5c-0.2-0.3-0.4-0.6-0.4-1c0-0.5,0.1-0.8,0.4-1.1c0.3-0.2,0.6-0.4,0.9-0.4c0.3,0,0.6,0.1,0.9,0.4
		c0.2,0.2,0.4,0.6,0.4,1.1c0,0.4-0.1,0.8-0.4,1c-0.2,0.3-0.6,0.4-0.9,0.4C122.5,15.9,122.2,15.8,121.9,15.5z M122.3,36.2
		c-0.2-0.2-0.2-0.4-0.2-0.7V20.4c0-0.3,0.1-0.5,0.2-0.7c0.2-0.2,0.4-0.2,0.6-0.2c0.3,0,0.5,0.1,0.6,0.2c0.1,0.2,0.2,0.4,0.2,0.7
		v15.1c0,0.3-0.1,0.5-0.2,0.7c-0.1,0.2-0.3,0.3-0.6,0.3C122.6,36.5,122.4,36.4,122.3,36.2z"/>
	<path class="st0" d="M140,20.4c1.2,0.8,2.1,1.8,2.8,3.1c0.7,1.3,1,2.8,1,4.4v7.6c0,0.3-0.1,0.5-0.2,0.7c-0.1,0.2-0.3,0.3-0.6,0.3
		c-0.2,0-0.4-0.1-0.6-0.3c-0.2-0.2-0.2-0.4-0.2-0.7v-2.4c-0.6,1.1-1.4,2-2.5,2.6s-2.2,0.9-3.5,0.9c-1.4,0-2.8-0.4-3.9-1.1
		s-2.1-1.8-2.8-3.1c-0.7-1.3-1-2.8-1-4.4c0-1.6,0.3-3.1,1-4.4c0.7-1.3,1.6-2.4,2.8-3.1s2.5-1.1,3.9-1.1
		C137.5,19.3,138.8,19.7,140,20.4z M139.1,34.1c0.9-0.6,1.6-1.4,2.2-2.5s0.8-2.2,0.8-3.5c0-1.3-0.3-2.5-0.8-3.5
		c-0.5-1.1-1.2-1.9-2.2-2.5c-0.9-0.6-1.9-0.9-3.1-0.9c-1.1,0-2.2,0.3-3.1,0.9c-0.9,0.6-1.6,1.4-2.2,2.5c-0.5,1.1-0.8,2.2-0.8,3.5
		c0,1.3,0.3,2.5,0.8,3.5c0.5,1.1,1.3,1.9,2.2,2.5c0.9,0.6,1.9,0.9,3.1,0.9C137.2,35,138.2,34.7,139.1,34.1z"/>
	<path class="st0" d="M158.3,20.2c1.1,0.6,1.9,1.5,2.5,2.7c0.6,1.2,0.9,2.6,0.9,4.3v8.4c0,0.3-0.1,0.5-0.2,0.7
		c-0.2,0.2-0.4,0.3-0.6,0.3c-0.2,0-0.4-0.1-0.6-0.3c-0.2-0.2-0.2-0.4-0.2-0.7v-8.4c0-2-0.5-3.5-1.5-4.5s-2.3-1.6-3.8-1.6
		c-1,0-1.9,0.2-2.7,0.6s-1.4,1-1.9,1.8c-0.5,0.8-0.7,1.6-0.7,2.5v9.5c0,0.3-0.1,0.5-0.2,0.7c-0.1,0.2-0.3,0.3-0.6,0.3
		c-0.2,0-0.4-0.1-0.6-0.3c-0.2-0.2-0.2-0.4-0.2-0.7V20.4c0-0.3,0.1-0.5,0.2-0.7c0.2-0.2,0.4-0.2,0.6-0.2c0.3,0,0.5,0.1,0.6,0.2
		c0.1,0.2,0.2,0.4,0.2,0.7V22c0.6-0.9,1.4-1.5,2.3-2c0.9-0.5,1.9-0.7,2.9-0.7C156.1,19.3,157.3,19.6,158.3,20.2z"/>
	<path class="st0" d="M177.2,20.4c1.2,0.7,2.1,1.8,2.7,3.1c0.7,1.3,1,2.8,1,4.5v6.1c0,1.7-0.3,3.2-1,4.5c-0.7,1.4-1.6,2.4-2.7,3.2
		c-1.2,0.8-2.4,1.2-3.8,1.2c-1.4,0-2.7-0.3-3.8-0.9c-1.1-0.6-2-1.4-2.7-2.5c-0.1-0.2-0.2-0.4-0.2-0.6c0-0.2,0.1-0.4,0.3-0.6
		c0.1-0.1,0.3-0.2,0.5-0.2c0.3,0,0.5,0.1,0.7,0.4c0.6,0.8,1.4,1.5,2.2,2c0.9,0.5,1.9,0.7,3,0.7c1.1,0,2.1-0.3,3-0.9
		c0.9-0.6,1.6-1.5,2.1-2.6c0.5-1.1,0.8-2.3,0.8-3.7v-1.4c-0.5,1.2-1.3,2.2-2.4,2.9c-1.1,0.7-2.3,1.1-3.6,1.1c-1.5,0-2.8-0.4-4-1.1
		c-1.2-0.7-2.1-1.8-2.7-3.1c-0.7-1.3-1-2.8-1-4.5c0-1.7,0.3-3.2,1-4.5c0.7-1.3,1.6-2.4,2.8-3.1c1.2-0.7,2.5-1.1,3.9-1.1
		C174.7,19.3,176,19.7,177.2,20.4z M176.3,34.1c0.9-0.6,1.6-1.4,2.1-2.5c0.5-1,0.8-2.2,0.8-3.6c0-1.3-0.3-2.5-0.8-3.6
		c-0.5-1.1-1.2-1.9-2.1-2.5c-0.9-0.6-2-0.9-3.1-0.9c-1.2,0-2.2,0.3-3.1,0.9c-0.9,0.6-1.6,1.4-2.1,2.5c-0.5,1.1-0.8,2.3-0.8,3.6
		c0,1.3,0.3,2.5,0.8,3.6c0.5,1,1.2,1.9,2.1,2.5c0.9,0.6,2,0.9,3.1,0.9C174.4,35,175.4,34.7,176.3,34.1z"/>
</g>
<g>
	<path class="st0" d="M125.3,51.8c0,0.1,0.1,0.1,0.1,0.2v2.5c0,0,0,0.1,0,0.1c0,0,0,0.1-0.1,0.1c-0.5,0.6-1.2,0.8-2.1,0.8
		c-0.6,0-1.2-0.2-1.7-0.5c-0.5-0.4-0.9-0.8-1.2-1.4c-0.3-0.6-0.5-1.2-0.5-1.9c0-0.7,0.1-1.3,0.4-1.9c0.3-0.6,0.7-1.1,1.2-1.4
		c0.5-0.4,1.1-0.5,1.7-0.5c0.8,0,1.5,0.3,2.1,0.9c0.1,0,0.1,0.1,0.1,0.2c0,0.1,0,0.1-0.1,0.2c0,0.1-0.1,0.1-0.2,0.1
		c-0.1,0-0.1,0-0.2-0.1c-0.4-0.4-1-0.7-1.7-0.7c-0.5,0-1,0.2-1.4,0.5c-0.4,0.3-0.8,0.7-1,1.2c-0.3,0.5-0.4,1-0.4,1.6
		c0,0.6,0.1,1.1,0.4,1.6c0.3,0.5,0.6,0.9,1,1.2s0.9,0.4,1.4,0.4c0.6,0,1.2-0.2,1.6-0.6v-2.1h-1.4c-0.1,0-0.1,0-0.2-0.1
		c0-0.1-0.1-0.1-0.1-0.2c0-0.1,0-0.1,0.1-0.2c0,0,0.1-0.1,0.2-0.1h1.7C125.2,51.7,125.3,51.8,125.3,51.8z"/>
	<path class="st0" d="M126.8,55c-0.2-0.3-0.3-0.7-0.3-1.1v-5.7c0-0.1,0-0.2,0.1-0.2c0-0.1,0.1-0.1,0.2-0.1c0.1,0,0.1,0,0.2,0.1
		c0,0.1,0.1,0.1,0.1,0.2v5.7c0,0.3,0.1,0.5,0.2,0.7c0.1,0.2,0.3,0.3,0.4,0.3h0.2c0.1,0,0.1,0,0.2,0.1c0,0.1,0.1,0.1,0.1,0.2
		c0,0.1,0,0.2-0.1,0.2s-0.1,0.1-0.2,0.1h-0.2C127.3,55.4,127,55.3,126.8,55z"/>
	<path class="st0" d="M129.8,55.1c-0.4-0.2-0.7-0.6-0.9-1c-0.2-0.4-0.3-0.9-0.3-1.4c0-0.5,0.1-1,0.3-1.4c0.2-0.4,0.5-0.7,0.9-1
		c0.4-0.2,0.8-0.4,1.2-0.4c0.4,0,0.8,0.1,1.2,0.4c0.4,0.2,0.7,0.6,0.9,1c0.2,0.4,0.3,0.9,0.3,1.4c0,0.5-0.1,1-0.3,1.4
		c-0.2,0.4-0.5,0.7-0.9,1c-0.4,0.2-0.8,0.4-1.2,0.4C130.6,55.5,130.2,55.4,129.8,55.1z M132,54.6c0.3-0.2,0.5-0.4,0.7-0.8
		s0.2-0.7,0.2-1.1s-0.1-0.8-0.2-1.1s-0.4-0.6-0.7-0.8s-0.6-0.3-1-0.3c-0.4,0-0.7,0.1-1,0.3c-0.3,0.2-0.5,0.4-0.7,0.8
		s-0.2,0.7-0.2,1.1s0.1,0.8,0.2,1.1s0.4,0.6,0.7,0.8c0.3,0.2,0.6,0.3,1,0.3C131.4,54.9,131.7,54.8,132,54.6z"/>
	<path class="st0" d="M138.3,50.4c0.4,0.2,0.6,0.6,0.9,1s0.3,0.9,0.3,1.4c0,0.5-0.1,1-0.3,1.4s-0.5,0.7-0.9,1
		c-0.4,0.2-0.8,0.4-1.2,0.4c-0.4,0-0.8-0.1-1.2-0.3s-0.6-0.5-0.9-1c-0.2-0.4-0.3-0.9-0.3-1.4v0v-4.6c0-0.1,0-0.2,0.1-0.2
		c0-0.1,0.1-0.1,0.2-0.1c0.1,0,0.1,0,0.2,0.1c0,0.1,0.1,0.1,0.1,0.2v3c0.2-0.3,0.4-0.6,0.8-0.8s0.7-0.3,1.1-0.3
		C137.5,50.1,137.9,50.2,138.3,50.4z M138,54.6c0.3-0.2,0.5-0.4,0.7-0.8s0.2-0.7,0.2-1.1s-0.1-0.8-0.2-1.1s-0.4-0.6-0.7-0.8
		c-0.3-0.2-0.6-0.3-1-0.3s-0.7,0.1-1,0.3s-0.5,0.4-0.7,0.8s-0.2,0.7-0.2,1.1s0.1,0.8,0.2,1.1s0.4,0.6,0.7,0.8s0.6,0.3,1,0.3
		S137.8,54.8,138,54.6z"/>
	<path class="st0" d="M144.1,50.4c0.4,0.2,0.7,0.6,0.9,1c0.2,0.4,0.3,0.9,0.3,1.4v2.3c0,0.1,0,0.2-0.1,0.2c0,0.1-0.1,0.1-0.2,0.1
		c-0.1,0-0.1,0-0.2-0.1c0-0.1-0.1-0.1-0.1-0.2v-0.8c-0.2,0.3-0.4,0.6-0.8,0.8s-0.7,0.3-1.1,0.3c-0.4,0-0.9-0.1-1.2-0.4
		c-0.4-0.2-0.7-0.6-0.9-1c-0.2-0.4-0.3-0.9-0.3-1.4c0-0.5,0.1-1,0.3-1.4c0.2-0.4,0.5-0.7,0.9-1c0.4-0.2,0.8-0.4,1.2-0.4
		C143.3,50.1,143.7,50.2,144.1,50.4z M143.8,54.6c0.3-0.2,0.5-0.4,0.7-0.8s0.2-0.7,0.2-1.1s-0.1-0.8-0.2-1.1s-0.4-0.6-0.7-0.8
		s-0.6-0.3-1-0.3c-0.4,0-0.7,0.1-1,0.3c-0.3,0.2-0.5,0.4-0.7,0.8s-0.2,0.7-0.2,1.1s0.1,0.8,0.2,1.1s0.4,0.6,0.7,0.8
		c0.3,0.2,0.6,0.3,1,0.3C143.2,54.9,143.6,54.8,143.8,54.6z"/>
	<path class="st0" d="M146.7,55c-0.2-0.3-0.3-0.7-0.3-1.1v-5.7c0-0.1,0-0.2,0.1-0.2c0-0.1,0.1-0.1,0.2-0.1c0.1,0,0.1,0,0.2,0.1
		c0,0.1,0.1,0.1,0.1,0.2v5.7c0,0.3,0.1,0.5,0.2,0.7c0.1,0.2,0.3,0.3,0.4,0.3h0.2c0.1,0,0.1,0,0.2,0.1c0,0.1,0.1,0.1,0.1,0.2
		c0,0.1,0,0.2-0.1,0.2s-0.1,0.1-0.2,0.1h-0.2C147.2,55.4,146.9,55.3,146.7,55z"/>
	<path class="st0" d="M152.8,55c-0.5-0.4-0.9-0.8-1.2-1.4c-0.3-0.6-0.5-1.2-0.5-1.9c0-0.7,0.1-1.3,0.4-1.9c0.3-0.6,0.7-1.1,1.2-1.4
		c0.5-0.4,1.1-0.5,1.7-0.5c0.8,0,1.5,0.3,2.1,0.9c0.1,0,0.1,0.1,0.1,0.2c0,0.1,0,0.1-0.1,0.2c0,0.1-0.1,0.1-0.2,0.1
		c-0.1,0-0.1,0-0.2-0.1c-0.4-0.4-1-0.7-1.7-0.7c-0.5,0-1,0.2-1.4,0.5c-0.4,0.3-0.8,0.7-1,1.2c-0.3,0.5-0.4,1-0.4,1.6
		c0,0.6,0.1,1.1,0.4,1.6c0.3,0.5,0.6,0.9,1,1.2s0.9,0.4,1.4,0.4c0.7,0,1.3-0.2,1.8-0.7c0,0,0.1,0,0.1,0c0.1,0,0.1,0,0.2,0.1
		c0.1,0.1,0.1,0.1,0.1,0.2s0,0.2-0.1,0.2c-0.5,0.6-1.2,0.8-2.1,0.8C153.8,55.5,153.3,55.3,152.8,55z"/>
	<path class="st0" d="M161.2,50.4c0.3,0.2,0.6,0.5,0.8,0.8c0.2,0.4,0.3,0.8,0.3,1.3v2.6c0,0.1,0,0.2-0.1,0.2c0,0.1-0.1,0.1-0.2,0.1
		c-0.1,0-0.1,0-0.2-0.1c0-0.1-0.1-0.1-0.1-0.2v-2.6c0-0.6-0.2-1.1-0.5-1.4c-0.3-0.3-0.7-0.5-1.2-0.5c-0.3,0-0.6,0.1-0.8,0.2
		s-0.4,0.3-0.6,0.5c-0.1,0.2-0.2,0.5-0.2,0.8v3c0,0.1,0,0.2-0.1,0.2s-0.1,0.1-0.2,0.1c-0.1,0-0.1,0-0.2-0.1c0-0.1-0.1-0.1-0.1-0.2
		v-7c0-0.1,0-0.2,0.1-0.2c0-0.1,0.1-0.1,0.2-0.1c0.1,0,0.1,0,0.2,0.1c0,0.1,0.1,0.1,0.1,0.2v2.8c0.2-0.3,0.4-0.5,0.7-0.6
		c0.3-0.2,0.6-0.2,0.9-0.2C160.5,50.1,160.8,50.2,161.2,50.4z"/>
	<path class="st0" d="M167,50.4c0.4,0.2,0.7,0.6,0.9,1c0.2,0.4,0.3,0.9,0.3,1.4v2.3c0,0.1,0,0.2-0.1,0.2c0,0.1-0.1,0.1-0.2,0.1
		c-0.1,0-0.1,0-0.2-0.1c0-0.1-0.1-0.1-0.1-0.2v-0.8c-0.2,0.3-0.4,0.6-0.8,0.8s-0.7,0.3-1.1,0.3c-0.4,0-0.9-0.1-1.2-0.4
		c-0.4-0.2-0.7-0.6-0.9-1c-0.2-0.4-0.3-0.9-0.3-1.4c0-0.5,0.1-1,0.3-1.4c0.2-0.4,0.5-0.7,0.9-1c0.4-0.2,0.8-0.4,1.2-0.4
		C166.2,50.1,166.6,50.2,167,50.4z M166.7,54.6c0.3-0.2,0.5-0.4,0.7-0.8s0.2-0.7,0.2-1.1s-0.1-0.8-0.2-1.1s-0.4-0.6-0.7-0.8
		s-0.6-0.3-1-0.3c-0.4,0-0.7,0.1-1,0.3c-0.3,0.2-0.5,0.4-0.7,0.8s-0.2,0.7-0.2,1.1s0.1,0.8,0.2,1.1s0.4,0.6,0.7,0.8
		c0.3,0.2,0.6,0.3,1,0.3C166.1,54.9,166.5,54.8,166.7,54.6z"/>
	<path class="st0" d="M169.6,55c-0.2-0.3-0.3-0.7-0.3-1.1v-5.7c0-0.1,0-0.2,0.1-0.2c0-0.1,0.1-0.1,0.2-0.1c0.1,0,0.1,0,0.2,0.1
		c0,0.1,0.1,0.1,0.1,0.2v5.7c0,0.3,0.1,0.5,0.2,0.7c0.1,0.2,0.3,0.3,0.4,0.3h0.2c0.1,0,0.1,0,0.2,0.1c0,0.1,0.1,0.1,0.1,0.2
		c0,0.1,0,0.2-0.1,0.2s-0.1,0.1-0.2,0.1h-0.2C170.1,55.4,169.8,55.3,169.6,55z"/>
	<path class="st0" d="M171.9,55c-0.2-0.3-0.3-0.7-0.3-1.1v-5.7c0-0.1,0-0.2,0.1-0.2c0-0.1,0.1-0.1,0.2-0.1c0.1,0,0.1,0,0.2,0.1
		c0,0.1,0.1,0.1,0.1,0.2v5.7c0,0.3,0.1,0.5,0.2,0.7c0.1,0.2,0.3,0.3,0.4,0.3h0.2c0.1,0,0.1,0,0.2,0.1c0,0.1,0.1,0.1,0.1,0.2
		c0,0.1,0,0.2-0.1,0.2s-0.1,0.1-0.2,0.1h-0.2C172.4,55.4,172.1,55.3,171.9,55z"/>
	<path class="st0" d="M177,50.4c0.3,0.2,0.6,0.5,0.8,0.9s0.3,0.8,0.3,1.3c0,0.1,0,0.1-0.1,0.2c0,0-0.1,0.1-0.2,0.1h-3.6
		c0,0.4,0.1,0.7,0.3,1c0.2,0.3,0.4,0.5,0.6,0.7c0.3,0.2,0.6,0.3,0.9,0.3c0.2,0,0.4,0,0.7-0.1c0.2-0.1,0.4-0.2,0.5-0.3
		c0.1-0.1,0.1-0.1,0.2-0.1s0.1,0,0.2,0.1c0.1,0.1,0.1,0.1,0.1,0.2c0,0.1,0,0.1-0.1,0.2c-0.2,0.2-0.4,0.3-0.7,0.5
		c-0.3,0.1-0.6,0.2-0.8,0.2c-0.4,0-0.8-0.1-1.2-0.3c-0.4-0.2-0.6-0.5-0.8-1c-0.2-0.4-0.3-0.9-0.3-1.4c0-0.5,0.1-1,0.3-1.4
		c0.2-0.4,0.4-0.7,0.8-1c0.3-0.2,0.7-0.3,1.1-0.3C176.3,50.1,176.7,50.2,177,50.4z M174.8,51.1c-0.3,0.3-0.5,0.8-0.5,1.3h3.3
		c0-0.5-0.2-1-0.5-1.3c-0.3-0.3-0.7-0.5-1.1-0.5C175.5,50.6,175.1,50.8,174.8,51.1z"/>
	<path class="st0" d="M182.4,50.4c0.3,0.2,0.6,0.5,0.8,0.8c0.2,0.4,0.3,0.8,0.3,1.3v2.6c0,0.1,0,0.2-0.1,0.2c0,0.1-0.1,0.1-0.2,0.1
		c-0.1,0-0.1,0-0.2-0.1c0-0.1-0.1-0.1-0.1-0.2v-2.6c0-0.6-0.2-1.1-0.5-1.4c-0.3-0.3-0.7-0.5-1.2-0.5c-0.3,0-0.6,0.1-0.8,0.2
		s-0.4,0.3-0.6,0.5c-0.1,0.2-0.2,0.5-0.2,0.8v3c0,0.1,0,0.2-0.1,0.2s-0.1,0.1-0.2,0.1c-0.1,0-0.1,0-0.2-0.1c0-0.1-0.1-0.1-0.1-0.2
		v-4.7c0-0.1,0-0.2,0.1-0.2c0-0.1,0.1-0.1,0.2-0.1c0.1,0,0.1,0,0.2,0.1s0.1,0.1,0.1,0.2v0.5c0.2-0.3,0.4-0.5,0.7-0.6
		c0.3-0.2,0.6-0.2,0.9-0.2C181.7,50.1,182.1,50.2,182.4,50.4z"/>
	<path class="st0" d="M188.3,50.4c0.4,0.2,0.6,0.6,0.8,1c0.2,0.4,0.3,0.9,0.3,1.4v1.9c0,0.5-0.1,1-0.3,1.4s-0.5,0.8-0.8,1
		c-0.4,0.2-0.8,0.4-1.2,0.4c-0.4,0-0.8-0.1-1.2-0.3c-0.3-0.2-0.6-0.4-0.8-0.8c0-0.1-0.1-0.1-0.1-0.2c0-0.1,0-0.1,0.1-0.2
		c0,0,0.1-0.1,0.2-0.1c0.1,0,0.2,0,0.2,0.1c0.2,0.3,0.4,0.5,0.7,0.6c0.3,0.1,0.6,0.2,0.9,0.2c0.3,0,0.7-0.1,0.9-0.3
		c0.3-0.2,0.5-0.5,0.7-0.8c0.2-0.3,0.2-0.7,0.2-1.1v-0.4c-0.2,0.4-0.4,0.7-0.7,0.9s-0.7,0.3-1.1,0.3c-0.5,0-0.9-0.1-1.2-0.3
		c-0.4-0.2-0.6-0.5-0.8-1c-0.2-0.4-0.3-0.9-0.3-1.4c0-0.5,0.1-1,0.3-1.4c0.2-0.4,0.5-0.7,0.9-1c0.4-0.2,0.8-0.3,1.2-0.3
		C187.5,50.1,187.9,50.2,188.3,50.4z M188,54.7c0.3-0.2,0.5-0.4,0.7-0.8c0.2-0.3,0.2-0.7,0.2-1.1s-0.1-0.8-0.2-1.1
		c-0.2-0.3-0.4-0.6-0.7-0.8s-0.6-0.3-1-0.3c-0.4,0-0.7,0.1-1,0.3s-0.5,0.4-0.7,0.8s-0.2,0.7-0.2,1.1s0.1,0.8,0.2,1.1
		s0.4,0.6,0.7,0.8s0.6,0.3,1,0.3C187.4,54.9,187.7,54.8,188,54.7z"/>
	<path class="st0" d="M193.8,50.4c0.3,0.2,0.6,0.5,0.8,0.9s0.3,0.8,0.3,1.3c0,0.1,0,0.1-0.1,0.2c0,0-0.1,0.1-0.2,0.1H191
		c0,0.4,0.1,0.7,0.3,1c0.2,0.3,0.4,0.5,0.6,0.7c0.3,0.2,0.6,0.3,0.9,0.3c0.2,0,0.4,0,0.7-0.1c0.2-0.1,0.4-0.2,0.5-0.3
		c0.1-0.1,0.1-0.1,0.2-0.1s0.1,0,0.2,0.1c0.1,0.1,0.1,0.1,0.1,0.2c0,0.1,0,0.1-0.1,0.2c-0.2,0.2-0.4,0.3-0.7,0.5
		c-0.3,0.1-0.6,0.2-0.8,0.2c-0.4,0-0.8-0.1-1.2-0.3c-0.4-0.2-0.6-0.5-0.8-1c-0.2-0.4-0.3-0.9-0.3-1.4c0-0.5,0.1-1,0.3-1.4
		c0.2-0.4,0.4-0.7,0.8-1c0.3-0.2,0.7-0.3,1.1-0.3C193.1,50.1,193.4,50.2,193.8,50.4z M191.5,51.1c-0.3,0.3-0.5,0.8-0.5,1.3h3.3
		c0-0.5-0.2-1-0.5-1.3c-0.3-0.3-0.7-0.5-1.1-0.5C192.2,50.6,191.8,50.8,191.5,51.1z"/>
	<path class="st0" d="M196.5,55.3c-0.3-0.1-0.6-0.3-0.8-0.6c0-0.1-0.1-0.1-0.1-0.2c0-0.1,0-0.2,0.1-0.2c0,0,0.1,0,0.1,0
		c0.1,0,0.1,0,0.2,0.1c0.3,0.4,0.7,0.6,1.4,0.6c0.4,0,0.8-0.1,1-0.3c0.2-0.2,0.3-0.4,0.3-0.7c0-0.5-0.4-0.8-1.3-1
		c-0.6-0.1-1-0.3-1.2-0.5c-0.3-0.3-0.4-0.6-0.4-0.9c0-0.5,0.2-0.8,0.5-1.1c0.3-0.3,0.7-0.4,1.2-0.4c0.7,0,1.3,0.3,1.6,0.9
		c0,0,0.1,0.1,0.1,0.2c0,0.1,0,0.2-0.1,0.2c-0.1,0-0.1,0-0.1,0c-0.1,0-0.2,0-0.2-0.1c-0.3-0.4-0.7-0.6-1.2-0.6
		c-0.3,0-0.6,0.1-0.8,0.3c-0.2,0.2-0.3,0.4-0.3,0.6c0,0.3,0.1,0.5,0.3,0.6c0.2,0.2,0.5,0.3,1,0.3c0.6,0.1,1,0.3,1.3,0.5
		c0.3,0.3,0.4,0.6,0.4,1c0,0.3-0.1,0.6-0.3,0.8c-0.2,0.2-0.4,0.4-0.7,0.5c-0.3,0.1-0.6,0.2-0.9,0.2S196.8,55.4,196.5,55.3z"/>
	<path class="st0" d="M203.1,55.3c-0.1,0-0.1-0.1-0.1-0.2v-7c0-0.1,0-0.2,0.1-0.2c0-0.1,0.1-0.1,0.2-0.1h2.1c0.3,0,0.6,0.1,0.9,0.2
		c0.3,0.2,0.5,0.4,0.6,0.7c0.2,0.3,0.2,0.6,0.2,0.9c0,0.4-0.1,0.7-0.3,1c-0.2,0.3-0.4,0.5-0.7,0.6c0.4,0.1,0.7,0.3,0.9,0.7
		c0.2,0.3,0.3,0.7,0.3,1.2c0,0.4-0.1,0.8-0.3,1.1c-0.2,0.3-0.4,0.6-0.7,0.8c-0.3,0.2-0.6,0.3-1,0.3h-2.1
		C203.3,55.4,203.2,55.4,203.1,55.3z M205.4,51.1c0.4,0,0.7-0.1,0.9-0.4s0.3-0.6,0.3-1c0-0.4-0.1-0.7-0.3-0.9
		c-0.2-0.2-0.5-0.3-0.9-0.3h-1.8v2.6H205.4z M205.5,54.8c0.3,0,0.5-0.1,0.7-0.2c0.2-0.1,0.4-0.3,0.5-0.6c0.1-0.2,0.2-0.5,0.2-0.8
		c0-0.3-0.1-0.6-0.2-0.8s-0.3-0.4-0.5-0.6c-0.2-0.1-0.5-0.2-0.7-0.2h-2v3.2H205.5z"/>
	<path class="st0" d="M208.9,55c-0.2-0.3-0.3-0.7-0.3-1.1v-5.7c0-0.1,0-0.2,0.1-0.2c0-0.1,0.1-0.1,0.2-0.1c0.1,0,0.1,0,0.2,0.1
		c0,0.1,0.1,0.1,0.1,0.2v5.7c0,0.3,0.1,0.5,0.2,0.7c0.1,0.2,0.3,0.3,0.4,0.3h0.2c0.1,0,0.1,0,0.2,0.1c0,0.1,0.1,0.1,0.1,0.2
		c0,0.1,0,0.2-0.1,0.2s-0.1,0.1-0.2,0.1h-0.2C209.3,55.4,209.1,55.3,208.9,55z"/>
	<path class="st0" d="M211.9,55.1c-0.4-0.2-0.7-0.6-0.9-1c-0.2-0.4-0.3-0.9-0.3-1.4c0-0.5,0.1-1,0.3-1.4c0.2-0.4,0.5-0.7,0.9-1
		c0.4-0.2,0.8-0.4,1.2-0.4c0.4,0,0.8,0.1,1.2,0.4c0.4,0.2,0.7,0.6,0.9,1c0.2,0.4,0.3,0.9,0.3,1.4c0,0.5-0.1,1-0.3,1.4
		c-0.2,0.4-0.5,0.7-0.9,1c-0.4,0.2-0.8,0.4-1.2,0.4C212.6,55.5,212.2,55.4,211.9,55.1z M214,54.6c0.3-0.2,0.5-0.4,0.7-0.8
		s0.2-0.7,0.2-1.1s-0.1-0.8-0.2-1.1s-0.4-0.6-0.7-0.8s-0.6-0.3-1-0.3c-0.4,0-0.7,0.1-1,0.3c-0.3,0.2-0.5,0.4-0.7,0.8
		s-0.2,0.7-0.2,1.1s0.1,0.8,0.2,1.1s0.4,0.6,0.7,0.8c0.3,0.2,0.6,0.3,1,0.3C213.4,54.9,213.8,54.8,214,54.6z"/>
	<path class="st0" d="M220.1,50.4c0.4,0.2,0.6,0.6,0.8,1c0.2,0.4,0.3,0.9,0.3,1.4v1.9c0,0.5-0.1,1-0.3,1.4s-0.5,0.8-0.8,1
		c-0.4,0.2-0.8,0.4-1.2,0.4c-0.4,0-0.8-0.1-1.2-0.3c-0.3-0.2-0.6-0.4-0.8-0.8c0-0.1-0.1-0.1-0.1-0.2c0-0.1,0-0.1,0.1-0.2
		c0,0,0.1-0.1,0.2-0.1c0.1,0,0.2,0,0.2,0.1c0.2,0.3,0.4,0.5,0.7,0.6c0.3,0.1,0.6,0.2,0.9,0.2c0.3,0,0.7-0.1,0.9-0.3
		c0.3-0.2,0.5-0.5,0.7-0.8c0.2-0.3,0.2-0.7,0.2-1.1v-0.4c-0.2,0.4-0.4,0.7-0.7,0.9s-0.7,0.3-1.1,0.3c-0.5,0-0.9-0.1-1.2-0.3
		c-0.4-0.2-0.6-0.5-0.8-1c-0.2-0.4-0.3-0.9-0.3-1.4c0-0.5,0.1-1,0.3-1.4c0.2-0.4,0.5-0.7,0.9-1c0.4-0.2,0.8-0.3,1.2-0.3
		C219.3,50.1,219.8,50.2,220.1,50.4z M219.8,54.7c0.3-0.2,0.5-0.4,0.7-0.8c0.2-0.3,0.2-0.7,0.2-1.1s-0.1-0.8-0.2-1.1
		c-0.2-0.3-0.4-0.6-0.7-0.8s-0.6-0.3-1-0.3c-0.4,0-0.7,0.1-1,0.3s-0.5,0.4-0.7,0.8s-0.2,0.7-0.2,1.1s0.1,0.8,0.2,1.1
		s0.4,0.6,0.7,0.8s0.6,0.3,1,0.3C219.2,54.9,219.6,54.8,219.8,54.7z"/>
</g>
</svg>
